<svg width="18" height="18" viewBox="0 0 18 18" fill="none" xmlns="http://www.w3.org/2000/svg">
<path d="M15.375 3.9375H14.0625V2.625C14.0625 2.3175 13.8075 2.0625 13.5 2.0625C13.1925 2.0625 12.9375 2.3175 12.9375 2.625V3.9375H11.625C11.3175 3.9375 11.0625 4.1925 11.0625 4.5C11.0625 4.8075 11.3175 5.0625 11.625 5.0625H12.9375V6.375C12.9375 6.6825 13.1925 6.9375 13.5 6.9375C13.8075 6.9375 14.0625 6.6825 14.0625 6.375V5.0625H15.375C15.6825 5.0625 15.9375 4.8075 15.9375 4.5C15.9375 4.1925 15.6825 3.9375 15.375 3.9375Z" fill="#478E00"/>
<path d="M8.2875 11.2125L6.9 12.6C6.6075 12.8925 6.1425 12.8925 5.8425 12.6075C5.76 12.525 5.6775 12.45 5.595 12.3675C4.8225 11.5875 4.125 10.77 3.5025 9.915C2.8875 9.06 2.3925 8.205 2.0325 7.3575C1.68 6.5025 1.5 5.685 1.5 4.905C1.5 4.395 1.59 3.9075 1.77 3.4575C1.95 3 2.235 2.58 2.6325 2.205C3.1125 1.7325 3.6375 1.5 4.1925 1.5C4.4025 1.5 4.6125 1.545 4.8 1.635C4.995 1.725 5.1675 1.86 5.3025 2.055L7.0425 4.5075C7.1775 4.695 7.275 4.8675 7.3425 5.0325C7.41 5.19 7.4475 5.3475 7.4475 5.49C7.4475 5.67 7.395 5.85 7.29 6.0225C7.1925 6.195 7.05 6.375 6.87 6.555L6.3 7.1475C6.2175 7.23 6.18 7.3275 6.18 7.4475C6.18 7.5075 6.1875 7.56 6.2025 7.62C6.225 7.68 6.2475 7.725 6.2625 7.77C6.3975 8.0175 6.63 8.34 6.96 8.73C7.2975 9.12 7.6575 9.5175 8.0475 9.915C8.1225 9.99 8.205 10.065 8.28 10.14C8.58 10.4325 8.5875 10.9125 8.2875 11.2125Z" fill="#478E00"/>
<path d="M16.4774 13.7475C16.4774 13.9575 16.4399 14.175 16.365 14.385C16.3425 14.445 16.32 14.505 16.2899 14.565C16.1624 14.835 15.9975 15.09 15.78 15.33C15.4125 15.735 15.0075 16.0275 14.55 16.215C14.5424 16.215 14.535 16.2225 14.5275 16.2225C14.085 16.4025 13.605 16.5 13.0875 16.5C12.3225 16.5 11.505 16.32 10.6425 15.9525C9.77995 15.585 8.91745 15.09 8.06245 14.4675C7.76995 14.25 7.47745 14.0325 7.19995 13.8L9.65245 11.3475C9.86245 11.505 10.05 11.625 10.2075 11.7075C10.245 11.7225 10.29 11.745 10.3425 11.7675C10.4025 11.79 10.4625 11.7975 10.53 11.7975C10.6575 11.7975 10.755 11.7525 10.8375 11.67L11.4075 11.1075C11.595 10.92 11.775 10.7775 11.9475 10.6875C12.12 10.5825 12.2924 10.53 12.4799 10.53C12.6224 10.53 12.7725 10.56 12.9375 10.6275C13.1025 10.695 13.275 10.7925 13.4625 10.92L15.945 12.6825C16.14 12.8175 16.275 12.975 16.3574 13.1625C16.4324 13.35 16.4774 13.5375 16.4774 13.7475Z" fill="#478E00"/>
</svg>
