<svg width="21" height="22" viewBox="0 0 21 22" fill="none" xmlns="http://www.w3.org/2000/svg">
<path d="M10.5 2.25C8.2075 2.25 6.34375 4.11375 6.34375 6.40625C6.34375 8.655 8.1025 10.475 10.395 10.5538C10.465 10.545 10.535 10.545 10.5875 10.5538C10.605 10.5538 10.6137 10.5538 10.6312 10.5538C10.64 10.5538 10.64 10.5538 10.6488 10.5538C12.8888 10.475 14.6475 8.655 14.6562 6.40625C14.6562 4.11375 12.7925 2.25 10.5 2.25Z" fill="#292D32"/>
<path d="M14.9451 12.8813C12.5038 11.2538 8.52259 11.2538 6.06384 12.8813C4.95259 13.625 4.34009 14.6313 4.34009 15.7075C4.34009 16.7838 4.95259 17.7813 6.05509 18.5163C7.28009 19.3388 8.89009 19.75 10.5001 19.75C12.1101 19.75 13.7201 19.3388 14.9451 18.5163C16.0476 17.7725 16.6601 16.775 16.6601 15.69C16.6513 14.6138 16.0476 13.6163 14.9451 12.8813Z" fill="#292D32"/>
</svg>
