<svg width="13" height="18" viewBox="0 0 13 18" fill="none" xmlns="http://www.w3.org/2000/svg">
<path d="M6.15991 0C3.86741 0 2.00366 1.82008 2.00366 4.05887C2.00366 6.25493 3.76241 8.03229 6.05491 8.1092C6.12491 8.10065 6.19491 8.10065 6.24741 8.1092C6.26491 8.1092 6.27366 8.1092 6.29116 8.1092C6.29991 8.1092 6.29991 8.1092 6.30866 8.1092C8.54866 8.03229 10.3074 6.25493 10.3162 4.05887C10.3162 1.82008 8.45241 0 6.15991 0Z" fill="#292D32"/>
<path d="M10.605 10.3822C8.16375 8.79284 4.1825 8.79284 1.72375 10.3822C0.6125 11.1085 0 12.0912 0 13.1422C0 14.1933 0.6125 15.1674 1.715 15.8852C2.94 16.6884 4.55 17.09 6.16 17.09C7.77 17.09 9.38 16.6884 10.605 15.8852C11.7075 15.1589 12.32 14.1847 12.32 13.1252C12.3113 12.0741 11.7075 11.1 10.605 10.3822Z" fill="#292D32"/>
</svg>
