<svg width="23" height="23" viewBox="0 0 23 23" fill="none" xmlns="http://www.w3.org/2000/svg">
<path d="M22.8565 11.0846C22.7766 8.83628 22.0317 6.66213 20.7161 4.83712C19.4005 3.01211 17.5733 1.61821 15.4655 0.831667C13.3577 0.045128 11.064 -0.0987144 8.87447 0.418329C6.68493 0.935373 4.69788 2.09008 3.16459 3.73643C1.63131 5.38278 0.62066 7.44683 0.260444 9.66757C-0.0997704 11.8883 0.206627 14.166 1.1409 16.2126C2.07516 18.2592 3.59534 19.9828 5.50918 21.1654C7.42303 22.3481 9.64459 22.9366 11.8929 22.8567C14.9066 22.7457 17.7532 21.4441 19.8085 19.2373C21.8638 17.0304 22.9599 14.0985 22.8565 11.0846ZM10.7697 15.8922L10.6453 12.3944L7.14755 12.5188C6.91563 12.527 6.68994 12.4428 6.52012 12.2846C6.35029 12.1265 6.25026 11.9073 6.24201 11.6754C6.23376 11.4435 6.31798 11.2178 6.47614 11.048C6.6343 10.8782 6.85344 10.7781 7.08536 10.7699L10.5831 10.6455L10.4588 7.14771C10.4505 6.91579 10.5347 6.6901 10.6929 6.52028C10.8511 6.35045 11.0702 6.25042 11.3021 6.24217C11.534 6.23392 11.7597 6.31814 11.9296 6.4763C12.0994 6.63446 12.1994 6.8536 12.2077 7.08552L12.332 10.5833L15.8298 10.4589C16.0618 10.4507 16.2874 10.5349 16.4573 10.6931C16.6271 10.8512 16.7271 11.0704 16.7354 11.3023C16.7436 11.5342 16.6594 11.7599 16.5012 11.9297C16.3431 12.0995 16.1239 12.1996 15.892 12.2078L12.3942 12.3322L12.5186 15.83C12.5269 16.0619 12.4426 16.2876 12.2845 16.4574C12.1263 16.6273 11.9072 16.7273 11.6753 16.7355C11.4433 16.7438 11.2176 16.6596 11.0478 16.5014C10.878 16.3432 10.778 16.1241 10.7697 15.8922Z" fill="#6FC1E9"/>
</svg>
