<svg width="12" height="12" viewBox="0 0 12 12" fill="none" xmlns="http://www.w3.org/2000/svg">
<path d="M6.00008 0.166626C2.78591 0.166626 0.166748 2.78579 0.166748 5.99996C0.166748 9.21413 2.78591 11.8333 6.00008 11.8333C9.21425 11.8333 11.8334 9.21413 11.8334 5.99996C11.8334 2.78579 9.21425 0.166626 6.00008 0.166626ZM8.53758 8.08246C8.45591 8.22246 8.31008 8.29829 8.15841 8.29829C8.08258 8.29829 8.00675 8.28079 7.93675 8.23413L6.12841 7.15496C5.67925 6.88663 5.34675 6.29746 5.34675 5.77829V3.38663C5.34675 3.14746 5.54508 2.94913 5.78425 2.94913C6.02341 2.94913 6.22175 3.14746 6.22175 3.38663V5.77829C6.22175 5.98829 6.39675 6.29746 6.57758 6.40246L8.38591 7.48163C8.59591 7.60413 8.66591 7.87246 8.53758 8.08246Z" fill="#FDA839"/>
</svg>
