<svg width="16" height="18" viewBox="0 0 16 18" fill="none" xmlns="http://www.w3.org/2000/svg">
<path d="M15.1834 6.24984C14.3167 2.3915 10.95 0.666504 8.00004 0.666504C8.00004 0.666504 8.00004 0.666504 7.9917 0.666504C5.05004 0.666504 1.6917 2.3915 0.816703 6.2415C-0.166631 10.5415 2.4667 14.1832 4.85004 16.4832C5.73337 17.3332 6.8667 17.7582 8.00004 17.7582C9.13337 17.7582 10.2667 17.3332 11.1417 16.4832C13.525 14.1832 16.1584 10.5498 15.1834 6.24984ZM10.2917 8.7915H8.62504V10.4582C8.62504 10.7998 8.3417 11.0832 8.00004 11.0832C7.65837 11.0832 7.37504 10.7998 7.37504 10.4582V8.7915H5.70837C5.3667 8.7915 5.08337 8.50817 5.08337 8.1665C5.08337 7.82484 5.3667 7.5415 5.70837 7.5415H7.37504V5.87484C7.37504 5.53317 7.65837 5.24984 8.00004 5.24984C8.3417 5.24984 8.62504 5.53317 8.62504 5.87484V7.5415H10.2917C10.6334 7.5415 10.9167 7.82484 10.9167 8.1665C10.9167 8.50817 10.6334 8.7915 10.2917 8.7915Z" fill="#292D32"/>
</svg>
