<svg width="12" height="12" viewBox="0 0 12 12" fill="none" xmlns="http://www.w3.org/2000/svg">
<path d="M11.0284 3.92921C10.4159 1.23421 8.06506 0.020874 6.00006 0.020874C6.00006 0.020874 6.00006 0.020874 5.99422 0.020874C3.93506 0.020874 1.57839 1.22837 0.965889 3.92337C0.283389 6.93337 2.12672 9.48254 3.79506 11.0867C4.41339 11.6817 5.20672 11.9792 6.00006 11.9792C6.79339 11.9792 7.58672 11.6817 8.19922 11.0867C9.86756 9.48254 11.7109 6.93921 11.0284 3.92921ZM6.00006 6.85171C4.98506 6.85171 4.16256 6.02921 4.16256 5.01421C4.16256 3.99921 4.98506 3.17671 6.00006 3.17671C7.01506 3.17671 7.83755 3.99921 7.83755 5.01421C7.83755 6.02921 7.01506 6.85171 6.00006 6.85171Z" fill="#6FC1E9"/>
</svg>
