<svg width="14" height="14" viewBox="0 0 14 14" fill="none" xmlns="http://www.w3.org/2000/svg">
<path d="M9.66671 0.333313H4.33337C1.66671 0.333313 0.333374 1.66665 0.333374 4.33331V13C0.333374 13.3666 0.633374 13.6666 1.00004 13.6666H9.66671C12.3334 13.6666 13.6667 12.3333 13.6667 9.66665V4.33331C13.6667 1.66665 12.3334 0.333313 9.66671 0.333313ZM8.33337 9.16665H3.66671C3.39337 9.16665 3.16671 8.93998 3.16671 8.66665C3.16671 8.39331 3.39337 8.16665 3.66671 8.16665H8.33337C8.60671 8.16665 8.83337 8.39331 8.83337 8.66665C8.83337 8.93998 8.60671 9.16665 8.33337 9.16665ZM10.3334 5.83331H3.66671C3.39337 5.83331 3.16671 5.60665 3.16671 5.33331C3.16671 5.05998 3.39337 4.83331 3.66671 4.83331H10.3334C10.6067 4.83331 10.8334 5.05998 10.8334 5.33331C10.8334 5.60665 10.6067 5.83331 10.3334 5.83331Z" fill="#6FC1E9"/>
</svg>
